<?xml version="1.0" standalone="no"?>
<!DOCTYPE svg PUBLIC "-//W3C//DTD SVG 20010904//EN"
 "http://www.w3.org/TR/2001/REC-SVG-20010904/DTD/svg10.dtd">
<svg version="1.0" xmlns="http://www.w3.org/2000/svg"
 width="150px" height="55px" viewBox="0 0 417.000000 199.000000"
 preserveAspectRatio="xMidYMid meet">

<g transform="translate(0.000000,199.000000) scale(0.100000,-0.100000)"
fill="#000000" stroke="none">
<path d="M1833 1943 c-20 -4 -14 -15 71 -121 63 -78 90 -119 83 -124 -11 -7
-3 -12 15 -9 9 1 82 -88 77 -93 -2 -2 -96 -37 -209 -79 l-205 -75 -46 45 c-42
40 -50 44 -89 41 l-42 -3 46 -60 c43 -55 45 -61 30 -72 -10 -7 -14 -13 -8 -13
30 -1 33 -16 15 -88 l-19 -71 37 15 c46 19 45 19 66 82 11 35 24 56 39 62 11
5 100 23 196 40 96 17 187 33 203 36 27 6 27 6 21 -38 -4 -23 -11 -49 -17 -56
-5 -7 -11 -27 -12 -45 -2 -17 -16 -94 -33 -169 -16 -76 -28 -138 -26 -138 3 0
30 13 62 29 l57 29 38 121 c26 85 42 121 52 121 9 0 20 12 25 26 14 36 13 44
-9 44 -19 0 -19 2 -3 61 l17 61 85 24 c104 30 274 113 278 136 8 41 -182 30
-347 -20 l-54 -17 -44 50 c-36 42 -41 52 -29 61 24 17 -8 58 -39 50 -19 -5
-36 9 -100 79 -74 82 -78 85 -118 84 -23 -1 -52 -4 -64 -6z"/>
<path d="M1285 1330 c-517 -109 -1023 -451 -1209 -817 -62 -123 -75 -272 -30
-361 24 -48 97 -112 128 -112 6 0 -3 9 -21 20 -154 94 -128 330 62 567 233
290 643 548 1095 689 118 37 109 42 -25 14z"/>
<path d="M3205 955 c-103 -36 -145 -173 -81 -267 35 -52 81 -78 140 -78 90 0
156 62 156 148 l0 42 -80 0 c-79 0 -80 0 -80 -25 0 -22 4 -25 40 -25 32 0 40
-4 40 -18 0 -53 -93 -71 -134 -27 -85 91 21 250 116 175 l25 -19 24 25 24 26
-23 19 c-23 18 -83 39 -112 39 -8 -1 -33 -7 -55 -15z"/>
<path d="M762 948 c3 -7 36 -86 74 -176 68 -162 69 -163 98 -160 27 3 33 11
71 103 23 55 56 133 73 173 l31 72 -43 0 -43 0 -44 -115 c-24 -63 -45 -112
-48 -109 -3 2 -23 53 -46 112 l-41 107 -43 3 c-33 3 -42 0 -39 -10z"/>
<path d="M1160 785 l0 -175 35 0 35 0 0 175 0 175 -35 0 -35 0 0 -175z"/>
<path d="M1357 792 c-37 -92 -67 -171 -67 -175 0 -4 17 -7 39 -7 34 0 39 3 47
33 l10 32 74 0 74 0 10 -32 c8 -31 12 -33 51 -33 l43 0 -71 175 -71 175 -36 0
-36 0 -67 -168z m122 21 c8 -21 16 -44 18 -50 4 -9 -7 -13 -37 -13 -30 0 -41
4 -37 13 2 6 10 29 18 50 7 20 16 37 19 37 3 0 12 -17 19 -37z"/>
<path d="M1830 785 l0 -175 58 0 c31 0 74 5 94 10 120 34 166 185 85 277 -42
48 -82 63 -167 63 l-70 0 0 -175z m163 80 c14 -14 28 -37 31 -51 15 -57 -37
-134 -90 -134 -24 0 -24 1 -24 105 l0 105 29 0 c17 0 38 -10 54 -25z"/>
<path d="M2180 785 l0 -175 40 0 40 0 0 175 0 175 -40 0 -40 0 0 -175z"/>
<path d="M2490 785 l0 -175 35 0 35 0 0 70 0 70 60 0 60 0 0 35 0 35 -61 0
-60 0 3 38 3 37 63 3 c61 3 62 3 62 32 l0 30 -100 0 -100 0 0 -175z"/>
<path d="M2760 819 l0 -141 34 -34 c31 -31 39 -34 93 -34 76 0 118 25 132 77
6 21 11 91 11 156 l0 117 -40 0 -40 0 0 -123 c0 -136 -8 -157 -63 -157 -46 0
-57 31 -57 162 l0 118 -35 0 -35 0 0 -141z"/>
<path d="M3591 942 c-11 -21 -131 -320 -131 -327 0 -3 18 -5 39 -5 36 0 40 3
51 35 l12 35 69 0 70 0 15 -35 c13 -32 18 -35 54 -35 l40 0 -13 33 c-7 17 -40
96 -72 175 l-58 142 -33 0 c-22 0 -37 -6 -43 -18z m78 -179 c1 -9 -13 -13 -39
-13 l-39 0 14 41 c23 64 27 66 46 23 10 -21 18 -45 18 -51z"/>
<path d="M547 540 c-66 -52 -2 -154 77 -124 10 4 16 18 16 40 0 30 -3 34 -25
34 -14 0 -25 -4 -25 -10 0 -5 7 -10 16 -10 22 0 14 -34 -9 -38 -24 -5 -57 26
-57 53 0 33 34 59 66 51 19 -5 25 -3 22 6 -7 22 -52 20 -81 -2z"/>
<path d="M734 546 c-3 -7 -4 -40 -2 -72 l3 -59 43 -3 c25 -2 42 1 42 7 0 6
-13 11 -28 11 -35 0 -41 6 -35 31 4 13 14 19 35 19 17 0 27 4 23 10 -3 6 -20
10 -37 10 -23 0 -29 4 -24 16 3 9 6 18 6 20 0 2 16 4 36 4 21 0 33 4 29 10 -9
15 -85 12 -91 -4z"/>
<path d="M926 544 c-19 -18 -19 -20 -6 -45 6 -10 18 -19 26 -19 8 0 24 -5 35
-11 17 -9 18 -13 8 -25 -9 -11 -23 -14 -48 -10 -34 6 -35 5 -17 -9 27 -21 59
-19 80 4 23 26 9 51 -36 67 -46 15 -44 39 5 38 38 -1 49 9 21 20 -27 10 -52 7
-68 -10z"/>
<path d="M1100 550 c0 -5 9 -10 20 -10 16 0 19 -8 22 -62 2 -35 8 -63 13 -63
6 0 11 28 13 63 3 54 6 62 22 62 11 0 20 5 20 10 0 6 -25 10 -55 10 -30 0 -55
-4 -55 -10z"/>
<path d="M1319 541 c-50 -40 -17 -131 47 -131 35 0 64 34 64 75 0 65 -61 96
-111 56z m75 -17 c29 -28 11 -94 -25 -94 -65 0 -66 108 -2 110 6 0 19 -7 27
-16z"/>
<path d="M1527 553 c-10 -10 -8 -131 2 -137 5 -4 12 8 16 24 6 26 11 31 33 28
18 -2 28 -10 32 -27 3 -14 11 -26 18 -29 15 -5 15 -3 1 36 -7 21 -7 37 0 50
17 31 -12 62 -58 62 -21 0 -41 -3 -44 -7z m78 -43 c0 -19 -6 -26 -24 -28 -27
-4 -41 12 -33 40 3 14 12 18 31 16 20 -2 26 -8 26 -28z"/>
<path d="M1738 554 c-11 -11 -10 -132 1 -138 5 -4 12 11 15 31 6 44 -5 118
-16 107z"/>
<path d="M1877 509 c-14 -30 -28 -65 -32 -79 l-7 -25 21 23 c27 27 65 29 84 2
26 -37 26 -8 0 53 -15 34 -30 66 -34 71 -5 5 -19 -15 -32 -45z m40 -35 c-3 -3
-12 -4 -20 -2 -11 2 -12 9 -5 28 l10 25 11 -23 c5 -12 8 -25 4 -28z"/>
<path d="M2160 552 c0 -4 11 -24 25 -44 14 -20 25 -51 25 -68 0 -18 4 -29 10
-25 6 3 10 21 10 38 0 18 9 43 20 57 31 39 24 60 -8 22 l-27 -32 -20 30 c-19
29 -35 39 -35 22z"/>
<path d="M2495 489 c-26 -66 -30 -105 -5 -60 15 29 65 28 81 -1 8 -15 14 -18
17 -10 4 14 -47 142 -58 142 -4 0 -19 -32 -35 -71z m49 5 c9 -23 8 -24 -14
-24 -11 0 -20 2 -20 4 0 12 13 36 20 36 4 0 11 -7 14 -16z"/>
<path d="M2686 544 c-19 -18 -19 -20 -6 -45 6 -10 18 -19 26 -19 8 0 24 -5 35
-11 17 -9 18 -13 8 -25 -9 -11 -23 -14 -48 -10 -34 6 -35 5 -17 -9 27 -21 59
-19 80 4 23 26 9 51 -36 67 -46 15 -44 39 5 38 38 -1 49 9 21 20 -27 10 -52 7
-68 -10z"/>
<path d="M2870 485 l0 -75 45 0 c25 0 45 5 45 10 0 6 -16 10 -35 10 -31 0 -35
3 -35 25 0 21 5 25 31 25 17 0 28 4 24 10 -3 6 -17 10 -31 10 -17 0 -24 5 -24
20 0 16 7 20 35 20 19 0 35 5 35 10 0 6 -20 10 -45 10 l-45 0 0 -75z"/>
<path d="M3060 546 c-21 -26 -8 -58 30 -70 53 -17 46 -41 -10 -39 -41 2 -43 1
-26 -13 26 -18 61 -18 80 2 30 29 16 56 -37 69 -40 11 -32 40 11 39 34 -2 43
10 16 20 -26 10 -51 7 -64 -8z"/>
<path d="M3259 541 c-50 -40 -17 -131 47 -131 35 0 64 34 64 75 0 65 -61 96
-111 56z m75 -17 c29 -28 11 -94 -25 -94 -65 0 -66 108 -2 110 6 0 19 -7 27
-16z"/>
<path d="M3467 553 c-11 -10 -8 -131 3 -138 6 -3 11 1 11 9 1 9 2 22 3 29 0 6
14 12 31 12 23 0 30 -5 35 -24 3 -14 11 -26 18 -29 15 -5 15 -3 1 36 -7 21 -7
37 0 50 17 31 -12 62 -58 62 -21 0 -41 -3 -44 -7z m78 -43 c0 -21 -5 -25 -30
-25 -23 0 -30 5 -31 20 -1 30 6 36 34 33 21 -2 27 -8 27 -28z"/>
<path d="M3677 553 c-11 -10 -8 -131 3 -138 6 -4 10 22 10 69 0 76 -1 82 -13
69z"/>
<path d="M3805 489 c-26 -66 -30 -105 -5 -60 15 29 65 28 81 -1 8 -15 14 -18
17 -10 4 14 -47 142 -58 142 -4 0 -19 -32 -35 -71z m49 5 c9 -23 8 -24 -14
-24 -11 0 -20 2 -20 4 0 12 13 36 20 36 4 0 11 -7 14 -16z"/>
<path d="M3996 544 c-19 -18 -19 -20 -6 -45 6 -10 18 -19 26 -19 8 0 24 -5 35
-11 17 -9 18 -13 8 -25 -9 -11 -23 -14 -48 -10 -34 6 -35 5 -17 -9 27 -21 59
-19 80 4 23 26 9 51 -36 67 -46 15 -44 39 5 38 38 -1 49 9 21 20 -27 10 -52 7
-68 -10z"/>
</g>
</svg>
